# xmcd CD database file
#
# Track frame offsets:
#       150
#       11469
#       25201
#       47717
#       65726
#       79963
#       93863
#       121116
#       134041
#       156004
#       177957
#       191402
#
# Disc length: 2734 seconds
#
# Revision: 0
# Processed by: cddbd v1.5.2PL0 Copyright (c) Steve Scherf et al.
# Submitted via: jack 3.1.1
#
DISCID=990aac0c
DTITLE=MADACY Ltd - Best of the Blues - 2of2
DYEAR=2005
DGENRE=Blues
TTITLE0=Menphis Slim - Lonesome
TTITLE1=Leadbelly - Where Did You Slepp Last Night
TTITLE2=B.B. King - The Thrill is Gone
TTITLE3=Lightnin' Hopkins - Shake That Thing
TTITLE4=Buddy Guy - Broken Hearted Blues
TTITLE5=Ray Charles - Late in the Evenin' Blues
TTITLE6=Mike Bloomfield - Blues in B Flat
TTITLE7=Charles Brown - Big Legged Woman
TTITLE8=Buddy Guy, Junior Wells - Blue Monday
TTITLE9=B.B. King - Every Day I have the Blues
TTITLE10=Lightnin' Hopkins - Mojo Hand
TTITLE11=Leadbelly - The Bourgeois Blues
EXTD=
EXTT0=
EXTT1=
EXTT2=
EXTT3=
EXTT4=
EXTT5=
EXTT6=
EXTT7=
EXTT8=
EXTT9=
EXTT10=
EXTT11=
PLAYORDER=
